{
.appVersion = "983";
copyright = "Copyright © 2014, 2015 Adobe Systems Incorporated (http://www.adobe.com/).";
customParameters = (
{
name = description;
value = "Dr. Ken Lunde (project architect, glyph set definition & overall production); Masataka HATTORI 服部正貴 (production & ideograph elements)";
},
{
name = license;
value = "This Font Software is licensed under the SIL Open Font License, Version 1.1. This Font Software is distributed on an \"AS IS\" BASIS, WITHOUT WARRANTIES OR CONDITIONS OF ANY KIND, either express or implied. See the SIL Open Font License for the specific language, permissions and limitations governing your use of this Font Software.";
},
{
name = licenseURL;
value = "http://scripts.sil.org/OFL";
},
{
name = vendorID;
value = GOOG;
},
{
name = panose;
value = (
2,
11,
8,
0,
0,
0,
0,
0,
0,
0
);
},
{
name = unicodeRanges;
value = (
0,
1,
28,
29,
36,
42,
43,
44,
45,
48,
49,
50,
51,
52,
54,
55,
56,
57,
59,
61,
65,
66,
68
);
},
{
name = codePageRanges;
value = (
1252,
1250,
1251,
1258,
932,
936,
949,
1361
);
},
{
name = ROS;
value = "Adobe, Identity, 0";
},
{
name = glyphOrder;
value = (
.notdef,
space
);
}
);
date = "2015-06-15 05:08:03 +0000";
designer = "Ryoko NISHIZUKA 西塚涼子 (kana & ideographs); Paul D. Hunt (Latin, Greek & Cyrillic); Wenlong ZHANG 张文龙 (bopomofo); Sandoll Communication 산돌커뮤니케이션, Soo-young JANG 장수영 & Joo-yeon KANG 강주연 (hangul elements, letters & syllables)";
designerURL = "http://www.adobe.com/type/";
familyName = "Yaku Han JP";
fontMaster = (
{
alignmentZones = (
"{1900, 0}",
"{1100, 0}",
"{1100, 0}",
"{1100, 0}",
"{1100, 0}",
"{1100, 0}",
"{1100, 0}",
"{1100, 0}",
"{1100, 0}",
"{1100, 0}",
"{1100, 0}",
"{1100, 0}",
"{743, 12}",
"{743, 12}",
"{743, 12}",
"{743, 0}",
"{740, 14}",
"{740, 14}",
"{724, 14}",
"{724, 14}",
"{562, 13}",
"{562, 13}",
"{561, 0}",
"{560, 14}",
"{0, 0}",
"{0, -12}",
"{0, -12}",
"{0, -14}",
"{0, -14}",
"{0, -14}",
"{0, -14}",
"{-197, -12}",
"{-215, -14}",
"{-215, -15}",
"{-250, 0}",
"{-250, 0}",

glyphs = (
{
glyphname = .notdef;
lastChange = "2017-04-15 13:09:34 +0000";
layers = (
{
layerId = "6EA7E964-4722-40CD-99E1-83E165A55AF5";
paths = (
{
closed = 1;
nodes = (
"100 -120 LINE",
"900 -120 LINE",
"900 880 LINE",
"100 880 LINE"
);
},
{
closed = 1;
nodes = (
"500 421 LINE",
"182 830 LINE",
"818 830 LINE"
);
},
{
closed = 1;
nodes = (
"532 380 LINE",
"850 789 LINE",
"850 -29 LINE"
);
},
{
closed = 1;
nodes = (
"182 -70 LINE",
"500 339 LINE",
"818 -70 LINE"
);
},
{
closed = 1;
nodes = (
"150 789 LINE",
"468 380 LINE",
"150 -29 LINE"
);
}
);
width = 1000;
}
);
note = .notdef;
},
{
glyphname = "comma-han";
lastChange = "2017-04-16 02:19:41 +0000";
layers = (
{
layerId = "6EA7E964-4722-40CD-99E1-83E165A55AF5";
paths = (
{
closed = 1;
nodes = (
"372 23 LINE",
"321 85 OFFCURVE",
"225 184 OFFCURVE",
"154 242 CURVE",
"50 152 LINE",
"120 92 OFFCURVE",
"204 6 OFFCURVE",
"265 -69 CURVE"
);
}
);
vertWidth = 1000;
width = 572;
}
);
note = cid01390;
unicode = 3001;
},
{
glyphname = ellipsis;
lastChange = "2017-04-15 13:09:34 +0000";
layers = (
{
layerId = "6EA7E964-4722-40CD-99E1-83E165A55AF5";
paths = (
{
closed = 1;
nodes = (
"86 335 OFFCURVE",
"122 299 OFFCURVE",
"167 299 CURVE SMOOTH",
"212 299 OFFCURVE",
"248 335 OFFCURVE",
"248 380 CURVE SMOOTH",
"248 425 OFFCURVE",
"212 461 OFFCURVE",
"167 461 CURVE SMOOTH",
"122 461 OFFCURVE",
"86 425 OFFCURVE",
"86 380 CURVE SMOOTH"
);
},
{
closed = 1;
nodes = (
"419 335 OFFCURVE",
"455 299 OFFCURVE",
"500 299 CURVE SMOOTH",
"545 299 OFFCURVE",
"581 335 OFFCURVE",
"581 380 CURVE SMOOTH",
"581 425 OFFCURVE",
"545 461 OFFCURVE",
"500 461 CURVE SMOOTH",
"455 461 OFFCURVE",
"419 425 OFFCURVE",
"419 380 CURVE SMOOTH"
);
},
{
closed = 1;
nodes = (
"752 335 OFFCURVE",
"788 299 OFFCURVE",
"833 299 CURVE SMOOTH",
"878 299 OFFCURVE",
"914 335 OFFCURVE",
"914 380 CURVE SMOOTH",
"914 425 OFFCURVE",
"878 461 OFFCURVE",
"833 461 CURVE SMOOTH",
"788 461 OFFCURVE",
"752 425 OFFCURVE",
"752 380 CURVE SMOOTH"
);
}
);
width = 1000;
}
);
note = cid00728;
unicode = 2026;
},
{
glyphname = "period-han";
lastChange = "2017-04-16 02:19:49 +0000";
layers = (
{
layerId = "6EA7E964-4722-40CD-99E1-83E165A55AF5";
paths = (
{
closed = 1;
nodes = (
"123 248 OFFCURVE",
"50 175 OFFCURVE",
"50 86 CURVE SMOOTH",
"50 -3 OFFCURVE",
"123 -76 OFFCURVE",
"211 -76 CURVE SMOOTH",
"301 -76 OFFCURVE",
"373 -3 OFFCURVE",
"373 86 CURVE SMOOTH",
"373 175 OFFCURVE",
"301 248 OFFCURVE",
"211 248 CURVE SMOOTH"
);
},
{
closed = 1;
nodes = (
"163 -3 OFFCURVE",
"122 36 OFFCURVE",
"122 86 CURVE SMOOTH",
"122 136 OFFCURVE",
"163 176 OFFCURVE",
"211 176 CURVE SMOOTH",
"261 176 OFFCURVE",
"301 136 OFFCURVE",
"301 86 CURVE SMOOTH",
"301 36 OFFCURVE",
"261 -3 OFFCURVE",
"211 -3 CURVE SMOOTH"
);
}
);
vertWidth = 1000;
width = 773;
}
);
note = cid01391;
unicode = 3002;
},
{
glyphname = colon.full;
lastChange = "2017-04-16 02:20:09 +0000";
layers = (
{
layerId = "6EA7E964-4722-40CD-99E1-83E165A55AF5";
paths = (
{
closed = 1;
nodes = (
"298 516 OFFCURVE",
"340 556 OFFCURVE",
"340 609 CURVE SMOOTH",
"340 664 OFFCURVE",
"298 704 OFFCURVE",
"245 704 CURVE SMOOTH",
"192 704 OFFCURVE",
"150 664 OFFCURVE",
"150 609 CURVE SMOOTH",
"150 556 OFFCURVE",
"192 516 OFFCURVE",
"245 516 CURVE SMOOTH"
);
},
{
closed = 1;
nodes = (
"298 39 OFFCURVE",
"340 79 OFFCURVE",
"340 132 CURVE SMOOTH",
"340 187 OFFCURVE",
"298 227 OFFCURVE",
"245 227 CURVE SMOOTH",
"192 227 OFFCURVE",
"150 187 OFFCURVE",
"150 132 CURVE SMOOTH",
"150 79 OFFCURVE",
"192 39 OFFCURVE",
"245 39 CURVE SMOOTH"
);
}
);
vertWidth = 1000;
width = 490;
}
);
note = cid59017;
unicode = FF1A;
},
{
glyphname = exclam.full;
lastChange = "2017-04-16 02:20:09 +0000";
layers = (
{
layerId = "6EA7E964-4722-40CD-99E1-83E165A55AF5";
paths = (
{
closed = 1;
nodes = (
"203 257 LINE",
"306 257 LINE",
"341 599 LINE",
"346 748 LINE",
"163 748 LINE",
"167 599 LINE"
);
},
{
closed = 1;
nodes = (
"313 -9 OFFCURVE",
"358 31 OFFCURVE",
"358 89 CURVE SMOOTH",
"358 146 OFFCURVE",
"313 188 OFFCURVE",
"254 188 CURVE SMOOTH",
"195 188 OFFCURVE",
"150 146 OFFCURVE",
"150 89 CURVE SMOOTH",
"150 31 OFFCURVE",
"195 -9 OFFCURVE",
"254 -9 CURVE SMOOTH"
);
}
);
width = 508;
}
);
note = cid58992;
unicode = FF01;
},
{
glyphname = question.full;
lastChange = "2017-04-16 02:20:09 +0000";
layers = (
{
layerId = "6EA7E964-4722-40CD-99E1-83E165A55AF5";
paths = (
{
closed = 1;
nodes = (
"456 257 LINE",
"441 396 OFFCURVE",
"659 413 OFFCURVE",
"659 560 CURVE SMOOTH",
"659 693 OFFCURVE",
"553 760 OFFCURVE",
"408 760 CURVE SMOOTH",
"301 760 OFFCURVE",
"213 712 OFFCURVE",
"150 638 CURVE",
"232 562 LINE",
"278 614 OFFCURVE",
"330 641 OFFCURVE",
"392 641 CURVE SMOOTH",
"470 641 OFFCURVE",
"518 607 OFFCURVE",
"518 547 CURVE SMOOTH",
"518 450 OFFCURVE",
"306 414 OFFCURVE",
"327 257 CURVE"
);
},
{
closed = 1;
nodes = (
"288 32 OFFCURVE",
"332 -9 OFFCURVE",
"392 -9 CURVE SMOOTH",
"452 -9 OFFCURVE",
"496 32 OFFCURVE",
"496 90 CURVE SMOOTH",
"496 148 OFFCURVE",
"452 188 OFFCURVE",
"392 188 CURVE SMOOTH",
"332 188 OFFCURVE",
"288 148 OFFCURVE",
"288 90 CURVE SMOOTH"
);
}
);
width = 809;
}
);
note = cid59022;
unicode = FF1F;
},
{
glyphname = semicolon.full;
lastChange = "2017-04-16 02:20:09 +0000";
layers = (
{
layerId = "6EA7E964-4722-40CD-99E1-83E165A55AF5";
paths = (
{
closed = 1;
nodes = (
"319 516 OFFCURVE",
"361 556 OFFCURVE",
"361 609 CURVE SMOOTH",
"361 664 OFFCURVE",
"319 704 OFFCURVE",
"266 704 CURVE SMOOTH",
"213 704 OFFCURVE",
"171 664 OFFCURVE",
"171 609 CURVE SMOOTH",
"171 556 OFFCURVE",
"213 516 OFFCURVE",
"266 516 CURVE SMOOTH"
);
},
{
closed = 1;
nodes = (
"182 -130 LINE",
"309 -88 OFFCURVE",
"380 6 OFFCURVE",
"380 130 CURVE SMOOTH",
"380 223 OFFCURVE",
"341 280 OFFCURVE",
"271 280 CURVE SMOOTH",
"218 280 OFFCURVE",
"174 247 OFFCURVE",
"174 190 CURVE SMOOTH",
"174 132 OFFCURVE",
"219 99 OFFCURVE",
"269 99 CURVE SMOOTH",
"273 99 OFFCURVE",
"277 99 OFFCURVE",
"281 100 CURVE",
"279 35 OFFCURVE",
"235 -18 OFFCURVE",
"150 -49 CURVE"
);
}
);
vertWidth = 1000;
width = 530;
}
);
note = cid59018;
unicode = FF1B;
},
{
glyphname = anglebracketleft;
lastChange = "2017-04-16 02:20:30 +0000";
layers = (
{
layerId = "6EA7E964-4722-40CD-99E1-83E165A55AF5";
paths = (
{
closed = 1;
nodes = (
"325 380 LINE",
"586 809 LINE",
"487 852 LINE",
"200 380 LINE",
"487 -92 LINE",
"586 -49 LINE"
);
}
);
vertWidth = 1000;
width = 616;
}
);
note = cid01397;
unicode = 3008;
},
{
glyphname = anglebracketright;
lastChange = "2017-04-16 02:20:40 +0000";
layers = (
{
layerId = "6EA7E964-4722-40CD-99E1-83E165A55AF5";
paths = (
{
closed = 1;
nodes = (
"129 -92 LINE",
"416 380 LINE",
"129 852 LINE",
"30 809 LINE",
"291 380 LINE",
"30 -49 LINE"
);
}
);
vertWidth = 1000;
width = 616;
}
);
note = cid01398;
unicode = 3009;
},
{
glyphname = blacklenticularbracketleft;
lastChange = "2017-04-16 02:20:30 +0000";
layers = (
{
layerId = "6EA7E964-4722-40CD-99E1-83E165A55AF5";
paths = (
{
closed = 1;
nodes = (
"200 852 LINE",
"200 -92 LINE",
"512 -92 LINE",
"512 -87 LINE",
"403 7 OFFCURVE",
"314 175 OFFCURVE",
"314 380 CURVE SMOOTH",
"314 585 OFFCURVE",
"403 753 OFFCURVE",
"512 847 CURVE",
"512 852 LINE"
);
}
);
vertWidth = 1000;
width = 542;
}
);
note = cid01405;
unicode = 3010;
},
{
glyphname = blacklenticularbracketright;
lastChange = "2017-04-16 02:20:40 +0000";
layers = (
{
layerId = "6EA7E964-4722-40CD-99E1-83E165A55AF5";
paths = (
{
closed = 1;
nodes = (
"342 852 LINE",
"30 852 LINE",
"30 847 LINE",
"139 753 OFFCURVE",
"228 585 OFFCURVE",
"228 380 CURVE SMOOTH",
"228 175 OFFCURVE",
"139 7 OFFCURVE",
"30 -87 CURVE",
"30 -92 LINE",
"342 -92 LINE"
);
}
);
vertWidth = 1000;
width = 542;
}
);
note = cid01406;
unicode = 3011;
},
{
glyphname = braceleft.full;
lastChange = "2017-04-16 02:20:30 +0000";
layers = (
{
layerId = "6EA7E964-4722-40CD-99E1-83E165A55AF5";
paths = (
{
closed = 1;
nodes = (
"486 -96 LINE",
"486 -19 LINE",
"456 -19 LINE SMOOTH",
"405 -19 OFFCURVE",
"392 1 OFFCURVE",
"392 66 CURVE SMOOTH",
"392 127 OFFCURVE",
"397 182 OFFCURVE",
"397 251 CURVE SMOOTH",
"397 332 OFFCURVE",
"372 365 OFFCURVE",
"318 378 CURVE",
"318 382 LINE",
"372 396 OFFCURVE",
"397 429 OFFCURVE",
"397 509 CURVE SMOOTH",
"397 579 OFFCURVE",
"392 634 OFFCURVE",
"392 695 CURVE SMOOTH",
"392 760 OFFCURVE",
"405 780 OFFCURVE",
"456 780 CURVE SMOOTH",
"486 780 LINE",
"486 856 LINE",
"422 856 LINE SMOOTH",
"328 856 OFFCURVE",
"284 819 OFFCURVE",
"284 701 CURVE SMOOTH",
"284 623 OFFCURVE",
"294 577 OFFCURVE",
"294 505 CURVE SMOOTH",
"294 465 OFFCURVE",
"272 424 OFFCURVE",
"200 422 CURVE",
"200 339 LINE",
"272 337 OFFCURVE",
"294 295 OFFCURVE",
"294 255 CURVE SMOOTH",
"294 184 OFFCURVE",
"284 138 OFFCURVE",
"284 59 CURVE SMOOTH",
"284 -59 OFFCURVE",
"328 -96 OFFCURVE",
"422 -96 CURVE SMOOTH"
);
}
);
vertWidth = 1000;
width = 516;
}
);
note = cid59082;
unicode = FF5B;
},
{
glyphname = braceright.full;
lastChange = "2017-04-16 02:20:40 +0000";
layers = (
{
layerId = "6EA7E964-4722-40CD-99E1-83E165A55AF5";
paths = (
{
closed = 1;
nodes = (
"94 -96 LINE SMOOTH",
"188 -96 OFFCURVE",
"232 -59 OFFCURVE",
"232 59 CURVE SMOOTH",
"232 138 OFFCURVE",
"222 184 OFFCURVE",
"222 255 CURVE SMOOTH",
"222 295 OFFCURVE",
"244 337 OFFCURVE",
"316 339 CURVE",
"316 422 LINE",
"244 424 OFFCURVE",
"222 465 OFFCURVE",
"222 505 CURVE SMOOTH",
"222 577 OFFCURVE",
"232 623 OFFCURVE",
"232 701 CURVE SMOOTH",
"232 819 OFFCURVE",
"188 856 OFFCURVE",
"94 856 CURVE SMOOTH",
"30 856 LINE",
"30 780 LINE",
"60 780 LINE SMOOTH",
"111 780 OFFCURVE",
"124 760 OFFCURVE",
"124 695 CURVE SMOOTH",
"124 634 OFFCURVE",
"119 579 OFFCURVE",
"119 509 CURVE SMOOTH",
"119 429 OFFCURVE",
"144 396 OFFCURVE",
"198 382 CURVE",
"198 378 LINE",
"144 365 OFFCURVE",
"119 332 OFFCURVE",
"119 251 CURVE SMOOTH",
"119 182 OFFCURVE",
"124 127 OFFCURVE",
"124 66 CURVE SMOOTH",
"124 1 OFFCURVE",
"111 -19 OFFCURVE",
"60 -19 CURVE SMOOTH",
"30 -19 LINE",
"30 -96 LINE"
);
}
);
vertWidth = 1000;
width = 516;
}
);
note = cid59084;
unicode = FF5D;
},
{
glyphname = cornerbracketleft;
lastChange = "2017-04-16 02:20:30 +0000";
layers = (
{
layerId = "6EA7E964-4722-40CD-99E1-83E165A55AF5";
paths = (
{
closed = 1;
nodes = (
"200 213 LINE",
"318 213 LINE",
"318 744 LINE",
"531 744 LINE",
"531 852 LINE",
"200 852 LINE"
);
}
);
vertWidth = 1000;
width = 561;
}
);
note = cid01401;
unicode = 300C;
},
{
glyphname = cornerbracketright;
lastChange = "2017-04-16 02:20:40 +0000";
layers = (
{
layerId = "6EA7E964-4722-40CD-99E1-83E165A55AF5";
paths = (
{
closed = 1;
nodes = (
"362 547 LINE",
"243 547 LINE",
"243 16 LINE",
"30 16 LINE",
"30 -92 LINE",
"362 -92 LINE"
);
}
);
vertWidth = 1000;
width = 562;
}
);
note = cid01402;
unicode = 300D;
},
{
glyphname = dblanglebracketleft;
lastChange = "2017-04-16 02:20:30 +0000";
layers = (
{
layerId = "6EA7E964-4722-40CD-99E1-83E165A55AF5";
paths = (
{
closed = 1;
nodes = (
"293 380 LINE",
"482 826 LINE",
"399 852 LINE",
"200 380 LINE",
"399 -92 LINE",
"482 -66 LINE"
);
},
{
closed = 1;
nodes = (
"465 380 LINE",
"655 826 LINE",
"571 852 LINE",
"373 380 LINE",
"571 -92 LINE",
"655 -66 LINE"
);
}
);
vertWidth = 1000;
width = 685;
}
);
note = cid01399;
unicode = 300A;
},
{
glyphname = dblanglebracketright;
lastChange = "2017-04-16 02:20:40 +0000";
layers = (
{
layerId = "6EA7E964-4722-40CD-99E1-83E165A55AF5";
paths = (
{
closed = 1;
nodes = (
"286 -92 LINE",
"485 380 LINE",
"286 852 LINE",
"203 826 LINE",
"392 380 LINE",
"203 -66 LINE"
);
},
{
closed = 1;
nodes = (
"114 -92 LINE",
"312 380 LINE",
"114 852 LINE",
"30 826 LINE",
"220 380 LINE",
"30 -66 LINE"
);
}
);
vertWidth = 1000;
width = 685;
}
);
note = cid01400;
unicode = 300B;
},
{
glyphname = tortoiseshellbracketleft;
lastChange = "2017-04-16 02:20:30 +0000";
layers = (
{
layerId = "6EA7E964-4722-40CD-99E1-83E165A55AF5";
paths = (
{
closed = 1;
nodes = (
"434 -104 LINE",
"482 -25 LINE",
"310 85 LINE",
"310 675 LINE",
"482 785 LINE",
"434 864 LINE",
"200 714 LINE",
"200 46 LINE"
);
}
);
vertWidth = 1000;
width = 512;
}
);
note = cid01409;
unicode = 3014;
},
{
glyphname = tortoiseshellbracketright;
lastChange = "2017-04-16 02:20:40 +0000";
layers = (
{
layerId = "6EA7E964-4722-40CD-99E1-83E165A55AF5";
paths = (
{
closed = 1;
nodes = (
"312 46 LINE",
"312 714 LINE",
"78 864 LINE",
"30 785 LINE",
"202 675 LINE",
"202 85 LINE",
"30 -25 LINE",
"78 -104 LINE"
);
}
);
vertWidth = 1000;
width = 512;
}
);
note = cid01410;
unicode = 3015;
},
{
glyphname = whitecornerbracketleft;
lastChange = "2017-04-16 02:20:30 +0000";
layers = (
{
layerId = "6EA7E964-4722-40CD-99E1-83E165A55AF5";
paths = (
{
closed = 1;
nodes = (
"572 674 LINE",
"572 852 LINE",
"200 852 LINE",
"200 191 LINE",
"392 191 LINE",
"392 674 LINE"
);
},
{
closed = 1;
nodes = (
"528 808 LINE",
"528 718 LINE",
"349 718 LINE",
"349 235 LINE",
"244 235 LINE",
"244 808 LINE"
);
}
);
vertWidth = 1000;
width = 602;
}
);
note = cid01403;
unicode = 300E;
},
{
glyphname = whitecornerbracketright;
lastChange = "2017-04-16 02:20:40 +0000";
layers = (
{
layerId = "6EA7E964-4722-40CD-99E1-83E165A55AF5";
paths = (
{
closed = 1;
nodes = (
"30 86 LINE",
"30 -92 LINE",
"402 -92 LINE",
"402 569 LINE",
"210 569 LINE",
"210 86 LINE"
);
},
{
closed = 1;
nodes = (
"74 -48 LINE",
"74 42 LINE",
"253 42 LINE",
"253 525 LINE",
"358 525 LINE",
"358 -48 LINE"
);
}
);
vertWidth = 1000;
width = 602;
}
);
note = cid01404;
unicode = 300F;
},
{
glyphname = whitelenticularbracketleft;
lastChange = "2017-04-16 02:20:30 +0000";
layers = (
{
layerId = "6EA7E964-4722-40CD-99E1-83E165A55AF5";
paths = (
{
closed = 1;
nodes = (
"543 -75 LINE",
"385 -1 OFFCURVE",
"280 156 OFFCURVE",
"280 380 CURVE SMOOTH",
"280 604 OFFCURVE",
"385 761 OFFCURVE",
"543 835 CURVE",
"543 852 LINE",
"200 852 LINE",
"200 -92 LINE",
"543 -92 LINE"
);
},
{
closed = 1;
nodes = (
"225 -67 LINE",
"225 827 LINE",
"477 827 LINE",
"382 768 OFFCURVE",
"255 636 OFFCURVE",
"255 380 CURVE SMOOTH",
"255 124 OFFCURVE",
"382 -8 OFFCURVE",
"477 -67 CURVE"
);
}
);
vertWidth = 1000;
width = 573;
}
);
note = cid01411;
unicode = 3016;
},
{
glyphname = whitelenticularbracketright;
lastChange = "2017-04-16 02:20:40 +0000";
layers = (
{
layerId = "6EA7E964-4722-40CD-99E1-83E165A55AF5";
paths = (
{
closed = 1;
nodes = (
"30 -92 LINE",
"373 -92 LINE",
"373 852 LINE",
"30 852 LINE",
"30 835 LINE",
"188 761 OFFCURVE",
"293 604 OFFCURVE",
"293 380 CURVE SMOOTH",
"293 156 OFFCURVE",
"188 -1 OFFCURVE",
"30 -75 CURVE"
);
},
{
closed = 1;
nodes = (
"96 -67 LINE",
"191 -8 OFFCURVE",
"318 124 OFFCURVE",
"318 380 CURVE SMOOTH",
"318 636 OFFCURVE",
"191 768 OFFCURVE",
"96 827 CURVE",
"348 827 LINE",
"348 -67 LINE"
);
}
);
vertWidth = 1000;
width = 573;
}
);
note = cid01412;
unicode = 3017;
},
{
glyphname = bracketleft.full;
lastChange = "2017-04-16 02:20:30 +0000";
layers = (
{
layerId = "6EA7E964-4722-40CD-99E1-83E165A55AF5";
paths = (
{
closed = 1;
nodes = (
"200 -92 LINE",
"459 -92 LINE",
"459 -13 LINE",
"310 -13 LINE",
"310 773 LINE",
"459 773 LINE",
"459 852 LINE",
"200 852 LINE"
);
}
);
vertWidth = 1000;
width = 489;
}
);
note = cid59050;
unicode = FF3B;
},
{
glyphname = bracketright.full;
lastChange = "2017-04-16 02:20:40 +0000";
layers = (
{
layerId = "6EA7E964-4722-40CD-99E1-83E165A55AF5";
paths = (
{
closed = 1;
nodes = (
"289 852 LINE",
"30 852 LINE",
"30 773 LINE",
"179 773 LINE",
"179 -13 LINE",
"30 -13 LINE",
"30 -92 LINE",
"289 -92 LINE"
);
}
);
vertWidth = 1000;
width = 489;
}
);
note = cid59052;
unicode = FF3D;
},
{
glyphname = parenleft.full;
lastChange = "2017-04-16 02:20:30 +0000";
layers = (
{
layerId = "6EA7E964-4722-40CD-99E1-83E165A55AF5";
paths = (
{
closed = 1;
nodes = (
"492 -58 LINE",
"392 50 OFFCURVE",
"313 188 OFFCURVE",
"313 380 CURVE SMOOTH",
"313 572 OFFCURVE",
"392 710 OFFCURVE",
"492 818 CURVE",
"397 860 LINE",
"289 754 OFFCURVE",
"200 594 OFFCURVE",
"200 380 CURVE SMOOTH",
"200 166 OFFCURVE",
"289 6 OFFCURVE",
"397 -100 CURVE"
);
}
);
vertWidth = 1000;
width = 522;
}
);
note = cid58999;
unicode = FF08;
},
{
glyphname = parenright.full;
lastChange = "2017-04-16 02:20:40 +0000";
layers = (
{
layerId = "6EA7E964-4722-40CD-99E1-83E165A55AF5";
paths = (
{
closed = 1;
nodes = (
"30 818 LINE",
"130 710 OFFCURVE",
"209 572 OFFCURVE",
"209 380 CURVE SMOOTH",
"209 188 OFFCURVE",
"130 50 OFFCURVE",
"30 -58 CURVE",
"125 -100 LINE",
"233 6 OFFCURVE",
"322 166 OFFCURVE",
"322 380 CURVE SMOOTH",
"322 594 OFFCURVE",
"233 754 OFFCURVE",
"125 860 CURVE"
);
}
);
vertWidth = 1000;
width = 522;
}
);
note = cid59000;
unicode = FF09;
},
{
glyphname = "dot-kata";
lastChange = "2017-04-16 02:20:09 +0000";
layers = (
{
layerId = "6EA7E964-4722-40CD-99E1-83E165A55AF5";
paths = (
{
closed = 1;
nodes = (
"150 310 OFFCURVE",
"208 252 OFFCURVE",
"278 252 CURVE SMOOTH",
"348 252 OFFCURVE",
"406 310 OFFCURVE",
"406 380 CURVE SMOOTH",
"406 450 OFFCURVE",
"348 508 OFFCURVE",
"278 508 CURVE SMOOTH",
"208 508 OFFCURVE",
"150 450 OFFCURVE",
"150 380 CURVE SMOOTH"
);
}
